Coordinates
version=1
nRows=17
nColumns=38
inDegrees=yes

Units are S.I. units (second, meters, Newtons, ...)
Angles are in degrees.

endheader
time	pelvis_tilt	pelvis_list	pelvis_rotation	pelvis_tx	pelvis_ty	pelvis_tz	hip_flexion_r	hip_adduction_r	hip_rotation_r	knee_angle_r	ankle_angle_r	subtalar_angle_r	mtp_angle_r	hip_flexion_l	hip_adduction_l	hip_rotation_l	knee_angle_l	ankle_angle_l	subtalar_angle_l	mtp_angle_l	lumbar_extension	lumbar_bending	lumbar_rotation	arm_flex_r	arm_add_r	arm_rot_r	elbow_flex_r	pro_sup_r	wrist_flex_r	wrist_dev_r	arm_flex_l	arm_add_l	arm_rot_l	elbow_flex_l	pro_sup_l	wrist_flex_l	wrist_dev_l
      7.36000000	     -3.89301874	     -1.81981123	     -1.35402271	      0.01055442	      0.87841141	      2.58157738	     20.37401343	      3.81523446	      2.36001476	    -15.26264095	      0.56648102	      0.00000000	      0.00000000	     -0.93567856	     -5.11200720	      1.12444660	    -55.99299496	    -28.66418217	      0.00000000	      0.00000000	     -0.54273869	      1.83736611	     -8.74718668	    -25.22923175	    -23.78718416	     12.67121156	    120.38710165	     86.65720723	      0.00000000	      0.00000000	      0.63141788	    -14.45685182	     25.91886871	    123.07034112	    104.05157059	      0.00000000	      0.00000000
      7.37000000	     -3.40566022	     -2.49551349	     -1.35773404	      0.00892452	      0.86898777	      2.58409755	     20.80776325	      4.91900106	      2.38025693	    -19.24479402	      1.85245913	      0.00000000	      0.00000000	      0.51166651	     -6.20445645	      1.17903518	    -60.51764641	    -27.01428252	      0.00000000	      0.00000000	     -1.42384037	      2.48093879	     -8.31331417	    -23.53577851	    -23.86396680	     13.89451283	    119.56214118	     86.48147340	      0.00000000	      0.00000000	      0.33149939	    -14.78942740	     25.89399766	    122.98197378	    103.59286758	      0.00000000	      0.00000000
      7.38000000	     -2.83418071	     -3.44568788	     -1.44607869	      0.00643548	      0.85950747	      2.58689448	     21.59350353	      6.45700813	      2.43860597	    -24.16062561	      3.92728868	      0.00000000	      0.00000000	      2.04294242	     -7.61213582	      1.28800230	    -65.11599362	    -25.18300748	      0.00000000	      0.00000000	     -2.52566700	      3.37278883	     -7.72609899	    -21.51380493	    -23.95150960	     15.22898477	    118.52163490	     86.24425711	      0.00000000	      0.00000000	      0.02922652	    -15.09601808	     25.66474042	    122.73474345	    103.08677176	      0.00000000	      0.00000000
      7.39000000	     -2.23592505	     -4.58707377	     -1.63525709	      0.00343877	      0.84986889	      2.58985323	     22.61487822	      8.35754377	      2.69134695	    -29.48548223	      6.67475865	      0.00000000	      0.00000000	      3.70162704	     -9.21864824	      1.43991663	    -69.70403757	    -23.18362198	      0.00000000	      0.00000000	     -3.70650377	      4.44578287	     -6.95726194	    -19.17657041	    -24.04495689	     16.67615609	    117.20379428	     85.98646810	      0.00000000	      0.00000000	     -0.32386289	    -15.31279187	     25.23431090	    122.25632187	    102.61009164	      0.00000000	      0.00000000
      7.40000000	     -1.78826216	     -5.79144940	     -1.96733974	      0.00022422	      0.84018493	      2.59263389	     23.61041691	     10.42971516	      3.21839643	    -34.51070345	      9.76686667	      0.00000000	      0.00000000	      5.58607008	    -10.84113026	      1.58646060	    -74.10230254	    -21.05837508	      0.00000000	      0.00000000	     -4.74376346	      5.59951853	     -5.99770607	    -16.58710609	    -24.14202626	     18.24930677	    115.54593248	     85.77494061	      0.00000000	      0.00000000	     -0.81509585	    -15.39554836	     24.64725591	    121.48777142	    102.25535496	      0.00000000	      0.00000000
      7.41000000	     -1.66584486	     -6.91430748	     -2.47064364	     -0.00280281	      0.83141115	      2.59476292	     24.30199297	     12.41317470	      3.97184395	    -38.55543032	     12.80917952	      0.00000000	      0.00000000	      7.78454879	    -12.28037143	      1.68698001	    -78.07659958	    -18.86221660	      0.00000000	      0.00000000	     -5.44644008	      6.71355096	     -4.86951972	    -13.84606705	    -24.23030964	     19.95846038	    113.52467655	     85.68697001	      0.00000000	      0.00000000	     -1.52224768	    -15.34267731	     23.97188205	    120.40555529	    102.10516306	      0.00000000	      0.00000000
      7.42000000	     -1.90130606	     -7.82269926	     -3.09353855	     -0.00533563	      0.82463767	      2.59609721	     24.49688280	     14.05116085	      4.79058619	    -41.19454503	     15.48914586	      0.00000000	      0.00000000	     10.28942374	    -13.36748976	      1.74897080	    -81.43018032	    -16.64224528	      0.00000000	      0.00000000	     -5.75051014	      7.65667490	     -3.63760797	    -11.06058856	    -24.28021742	     21.78342350	    111.21338153	     85.78873428	      0.00000000	      0.00000000	     -2.45989671	    -15.19705775	     23.27189872	    119.05418131	    102.19924392	      0.00000000	      0.00000000
      7.43000000	     -2.35271869	     -8.42608548	     -3.68045284	     -0.00743641	      0.82006447	      2.59689166	     24.09869200	     15.14714093	      5.48034424	    -42.40051948	     17.65489062	      0.00000000	      0.00000000	     12.97231556	    -13.98757397	      1.82871594	    -84.07816667	    -14.42751231	      0.00000000	      0.00000000	     -5.73822777	      8.31273946	     -2.40859541	     -8.32035684	    -24.25293568	     23.65130479	    108.80992141	     86.11300927	      0.00000000	      0.00000000	     -3.56320270	    -15.02491450	     22.58644915	    117.56623421	    102.50717125	      0.00000000	      0.00000000
      7.44000000	     -2.78586620	     -8.69059273	     -4.03202483	     -0.00927155	      0.81743921	      2.59728429	     23.09910081	     15.60028249	      5.90705055	    -42.49268143	     19.30590441	      0.00000000	      0.00000000	     15.64682389	    -14.08437400	      1.99179370	    -86.04246396	    -12.23774196	      0.00000000	      0.00000000	     -5.57897431	      8.62237312	     -1.30684518	     -5.69904942	    -24.12023825	     25.43848772	    106.59926634	     86.64370224	      0.00000000	      0.00000000	     -4.72521783	    -14.88540167	     21.92821212	    116.14361065	    102.92077287	      0.00000000	      0.00000000
      7.45000000	     -3.01766682	     -8.63066234	     -4.00782427	     -0.01098872	      0.81661017	      2.59706891	     21.57430497	     15.42850382	      6.03982477	    -41.92128915	     20.52434791	      0.00000000	      0.00000000	     18.16667671	    -13.65842015	      2.26355818	    -87.38300381	    -10.10294639	      0.00000000	      0.00000000	     -5.43315724	      8.60211616	     -0.42678185	     -3.26926669	    -23.87934313	     27.00302495	    104.86712171	     87.31587442	      0.00000000	      0.00000000	     -5.86324613	    -14.81146452	     21.29301014	    114.99819465	    103.27345018	      0.00000000	      0.00000000
      7.46000000	     -3.01925890	     -8.29654713	     -3.59362156	     -0.01254771	      0.81729292	      2.59610561	     19.67036082	     14.75775143	      5.93216666	    -41.02869685	     21.39301147	      0.00000000	      0.00000000	     20.48460742	    -12.76634359	      2.60693007	    -88.13739475	     -8.07601187	      0.00000000	      0.00000000	     -5.37032467	      8.31781592	      0.21571452	     -1.10512253	    -23.54944517	     28.23057415	    103.81435144	     88.03343770	      0.00000000	      0.00000000	     -6.96286920	    -14.80947095	     20.66701065	    114.28131542	    103.38231826	      0.00000000	      0.00000000
      7.47000000	     -2.91251608	     -7.75426335	     -2.90050304	     -0.01378012	      0.81914091	      2.59453940	     17.56183045	     13.76322415	      5.67443301	    -39.93293875	     21.93736388	      0.00000000	      0.00000000	     22.64634756	    -11.51508055	      2.94238759	    -88.30836368	     -6.22727689	      0.00000000	      0.00000000	     -5.34483412	      7.84195264	      0.69268201	      0.73724014	    -23.15743974	     29.06410873	    103.51032415	     88.69605889	      0.00000000	      0.00000000	     -8.06664585	    -14.86639465	     20.02955530	    114.04029873	    103.09968483	      0.00000000	      0.00000000
      7.48000000	     -2.87829788	     -7.06459471	     -2.10552520	     -0.01476351	      0.82198930	      2.59266197	     15.39442636	     12.59272616	      5.35159949	    -38.57899207	     22.10975067	      0.00000000	      0.00000000	     24.74013806	    -10.03441773	      3.18629804	    -87.88316051	     -4.62505255	      0.00000000	      0.00000000	     -5.24540327	      7.23042513	      1.12169549	      2.24077390	    -22.72499586	     29.50808202	    103.89272305	     89.22310081	      0.00000000	      0.00000000	     -9.22646345	    -14.95577510	     19.36007633	    114.21923656	    102.35639046	      0.00000000	      0.00000000
      7.49000000	     -3.04741134	     -6.27513826	     -1.36500484	     -0.01569452	      0.82575322	      2.59068626	     13.24618921	     11.32560155	      5.01909781	    -36.88293018	     21.81338164	      0.00000000	      0.00000000	     26.82904861	     -8.43523167	      3.27789813	    -86.85437244	     -3.31505290	      0.00000000	      0.00000000	     -4.98118895	      6.51603377	      1.60753440	      3.42874022	    -22.25930490	     29.61928227	    104.80321489	     89.56794313	      0.00000000	      0.00000000	    -10.46506663	    -15.04741385	     18.64925964	    114.69477795	    101.18204030	      0.00000000	      0.00000000
      7.50000000	     -3.43630137	     -5.41372365	     -0.75313072	     -0.01663099	      0.83031537	      2.58862744	     11.12862497	      9.98506308	      4.69451527	    -34.84745923	     20.94825408	      0.00000000	      0.00000000	     28.89527156	     -6.78612766	      3.19048226	    -85.22546899	     -2.30970045	      0.00000000	      0.00000000	     -4.54066356	      5.70524184	      2.20756375	      4.34988351	    -21.75070382	     29.49042939	    106.04156774	     89.72249629	      0.00000000	      0.00000000	    -11.77030113	    -15.12297017	     17.90461607	    115.32621719	     99.69580675	      0.00000000	      0.00000000
      7.51000000	     -3.95219356	     -4.48048552	     -0.26301777	     -0.01745098	      0.83560801	      2.58650297	      9.01405902	      8.56745832	      4.36369484	    -32.58182567	     19.45353621	      0.00000000	      0.00000000	     30.82680622	     -5.12205597	      2.93351115	    -83.00379833	     -1.58990346	      0.00000000	      0.00000000	     -3.99351211	      4.78237345	      2.92546698	      5.06389067	    -21.18153010	     29.22427591	    107.41874662	     89.71381045	      0.00000000	      0.00000000	    -13.11079939	    -15.18590290	     17.14490818	    115.99806424	     98.07268860	      0.00000000	      0.00000000
      7.52000000	     -4.45355715	     -3.45693434	      0.14792797	     -0.01792738	      0.84163015	      2.58441747	      6.86035244	      7.05947073	      3.99756487	    -30.24686881	     17.32452036	      0.00000000	      0.00000000	     32.45716403	     -3.46116951	      2.54276659	    -80.19463459	     -1.11548416	      0.00000000	      0.00000000	     -3.45392393	      3.72626117	      3.72205274	      5.63178468	    -20.53838592	     28.90834150	    108.79316411	     89.59479158	      0.00000000	      0.00000000	    -14.45149286	    -15.25520025	     16.38737505	    116.63915445	     96.49837369	      0.00000000	      0.00000000
